<svg width="16" height="16" viewBox="0 0 16 16" fill="none" xmlns="http://www.w3.org/2000/svg">
<path d="M9.75 2C9.26602 2 8.875 2.39102 8.875 2.875C8.875 3.35898 9.26602 3.75 9.75 3.75H12.0113L6.50703 9.25703C6.16523 9.59883 6.16523 10.1539 6.50703 10.4957C6.84883 10.8375 7.40391 10.8375 7.7457 10.4957L13.25 4.98867V7.25C13.25 7.73398 13.641 8.125 14.125 8.125C14.609 8.125 15 7.73398 15 7.25V2.875C15 2.39102 14.609 2 14.125 2H9.75ZM3.1875 2.875C1.97891 2.875 1 3.85391 1 5.0625V13.8125C1 15.0211 1.97891 16 3.1875 16H11.9375C13.1461 16 14.125 15.0211 14.125 13.8125V10.75C14.125 10.266 13.734 9.875 13.25 9.875C12.766 9.875 12.375 10.266 12.375 10.75V13.8125C12.375 14.0531 12.1781 14.25 11.9375 14.25H3.1875C2.94687 14.25 2.75 14.0531 2.75 13.8125V5.0625C2.75 4.82188 2.94687 4.625 3.1875 4.625H6.25C6.73398 4.625 7.125 4.23398 7.125 3.75C7.125 3.26602 6.73398 2.875 6.25 2.875H3.1875Z" fill="#666666"/>
</svg>
