<svg width="16" height="16" viewBox="0 0 16 16" fill="none" xmlns="http://www.w3.org/2000/svg">
<path d="M6 7C6 6.86739 6.05268 6.74021 6.14645 6.64645C6.24021 6.55268 6.36739 6.5 6.5 6.5H11.5C11.6326 6.5 11.7598 6.55268 11.8536 6.64645C11.9473 6.74021 12 6.86739 12 7C12 7.13261 11.9473 7.25979 11.8536 7.35355C11.7598 7.44732 11.6326 7.5 11.5 7.5H6.5C6.36739 7.5 6.24021 7.44732 6.14645 7.35355C6.05268 7.25979 6 7.13261 6 7ZM6.5 9.5H11.5C11.6326 9.5 11.7598 9.44732 11.8536 9.35355C11.9473 9.25979 12 9.13261 12 9C12 8.86739 11.9473 8.74021 11.8536 8.64645C11.7598 8.55268 11.6326 8.5 11.5 8.5H6.5C6.36739 8.5 6.24021 8.55268 6.14645 8.64645C6.05268 8.74021 6 8.86739 6 9C6 9.13261 6.05268 9.25979 6.14645 9.35355C6.24021 9.44732 6.36739 9.5 6.5 9.5ZM15 4V11.5C14.9984 11.8973 14.8398 12.2779 14.5588 12.5588C14.2779 12.8398 13.8973 12.9984 13.5 13H2.5C2.10326 13 1.72267 12.8428 1.44154 12.5629C1.16042 12.2829 1.00165 11.903 1 11.5063V5.5C1 5.36739 1.05268 5.24021 1.14645 5.14645C1.24022 5.05268 1.36739 5 1.5 5C1.63261 5 1.75978 5.05268 1.85355 5.14645C1.94732 5.24021 2 5.36739 2 5.5V11.5C2 11.6326 2.05268 11.7598 2.14645 11.8535C2.24021 11.9473 2.36739 12 2.5 12C2.63261 12 2.75979 11.9473 2.85355 11.8535C2.94732 11.7598 3 11.6326 3 11.5V4C3 3.73478 3.10536 3.48043 3.29289 3.29289C3.48043 3.10536 3.73478 3 4 3H14C14.2652 3 14.5196 3.10536 14.7071 3.29289C14.8946 3.48043 15 3.73478 15 4ZM14 4H4V11.5C3.99995 11.6705 3.97034 11.8396 3.9125 12H13.5C13.6326 12 13.7598 11.9473 13.8536 11.8535C13.9473 11.7598 14 11.6326 14 11.5V4Z" fill="#666666"/>
</svg>
