<svg width="16" height="16" viewBox="0 0 16 16" fill="none" xmlns="http://www.w3.org/2000/svg">
<path d="M3 2.16668C3 1.52267 3.52267 1 4.16667 1H11.1667C11.8107 1 12.3334 1.52267 12.3334 2.16668V13.8334C12.3334 13.9275 12.3068 14.0198 12.2567 14.0995C12.2066 14.1792 12.135 14.2431 12.0501 14.2839C11.9653 14.3247 11.8707 14.3408 11.7771 14.3302C11.6836 14.3196 11.5949 14.2828 11.5214 14.2241L7.66668 11.14L3.81267 14.2234C3.73915 14.2823 3.6505 14.3192 3.55691 14.33C3.46332 14.3407 3.3686 14.3247 3.28367 14.284C3.19874 14.2432 3.12706 14.1793 3.07687 14.0996C3.02668 14.0199 3.00003 13.9276 3 13.8334V2.16668ZM4.16667 2.00001C4.12246 2.00001 4.08007 2.01757 4.04881 2.04882C4.01756 2.08008 4 2.12247 4 2.16668V12.7934L7.35401 10.1094C7.44267 10.0382 7.55297 9.99934 7.66668 9.99934C7.78038 9.99934 7.89069 10.0382 7.97934 10.1094L11.3334 12.7934V2.16668C11.3334 2.12247 11.3158 2.08008 11.2845 2.04882C11.2533 2.01757 11.2109 2.00001 11.1667 2.00001H4.16667Z" fill="#666666"/>
</svg>
