<svg width="15" height="15" viewBox="0 0 15 15" fill="none" xmlns="http://www.w3.org/2000/svg">
<path fill-rule="evenodd" clip-rule="evenodd" d="M9.62873 10.6821C8.61414 11.4684 7.34584 11.9364 5.96819 11.9364C2.67574 11.9364 0 9.26213 0 5.96819C0 2.67425 2.67574 0 5.96819 0C9.26064 0 11.9364 2.67425 11.9364 5.96819C11.9364 7.34634 11.4689 8.61607 10.683 9.62718L15 13.9437L13.9457 14.9986L9.62873 10.6821ZM5.96819 1.49205C8.44001 1.49205 10.4443 3.49785 10.4443 5.96819C10.4443 8.43852 8.44001 10.4443 5.96819 10.4443C3.49636 10.4443 1.49205 8.43852 1.49205 5.96819C1.49205 3.49785 3.49636 1.49205 5.96819 1.49205Z" fill="#380339"/>
</svg>
