<svg width="16" height="16" viewBox="0 0 16 16" fill="none" xmlns="http://www.w3.org/2000/svg">
<path fill-rule="evenodd" clip-rule="evenodd" d="M8.20202 1.7806C7.69905 1.27802 7.01417 1 6.30788 1H3.67534C2.20925 1 1 2.20833 1 3.67329V6.31449C1 7.02024 1.28894 7.7046 1.7812 8.20718L8.26623 14.6872C8.68358 15.1043 9.35777 15.1043 9.77512 14.6872L14.687 9.77907C14.7863 9.68015 14.865 9.56264 14.9187 9.43328C14.9724 9.30392 15 9.16525 15 9.02521C15 8.88516 14.9724 8.74649 14.9187 8.61713C14.865 8.48777 14.7863 8.37027 14.687 8.27134L8.20202 1.7806ZM2.47679 7.51213C2.14505 7.19133 1.97382 6.76361 1.97382 6.3038V3.67329C1.97382 2.73229 2.74432 1.97308 3.67534 1.97308H6.31858C6.76803 1.97308 7.20679 2.14417 7.52783 2.47565L14.0985 9.03055L9.03673 14.0884L2.47679 7.51213ZM3.15097 3.13863H5.29125V5.27726H3.14027V3.13863H3.15097Z" fill="#666666"/>
</svg>
