<svg width="16" height="17" viewBox="0 0 16 17" fill="none" xmlns="http://www.w3.org/2000/svg">
<path fill-rule="evenodd" clip-rule="evenodd" d="M8 16.4993C12.4183 16.4993 16 12.9176 16 8.49928C16 4.081 12.4183 0.499275 8 0.499275C3.58172 0.499275 0 4.081 0 8.49928C0 12.9176 3.58172 16.4993 8 16.4993ZM3.75181 11.1128C3.36129 10.7223 3.36129 10.0891 3.75181 9.69857L7.44352 6.00686C7.62313 5.82725 7.85408 5.73024 8.08913 5.71585C8.14155 5.71264 8.19417 5.71354 8.24648 5.71855C8.46959 5.7399 8.6869 5.836 8.85776 6.00686L12.5692 9.71833C12.9598 10.1089 12.9598 10.742 12.5692 11.1325C12.1787 11.5231 11.5455 11.5231 11.155 11.1325L8.15064 8.12817L5.16602 11.1128C4.7755 11.5033 4.14233 11.5033 3.75181 11.1128Z" fill="#380339"/>
</svg>
